# xmcd CD database file
#
# Track frame offsets:
#	150
#	13453
#	26628
#	38284
#	53674
#	63802
#	72369
#	86503
#	98629
#	112111
#
# Disc length: 1669 seconds
#
# Revision: 1
# Processed by: cddbd v1.5.2PL0 Copyright (c) Steve Scherf et al.
# Submitted via: CDex 1.70beta2
#
DISCID=7906830a
DTITLE=Driftin' Doug and the Cow Serenaders - Cdn. - Driftin' Doug and the Cow Serenaders
DYEAR=2007
DGENRE=Country
TTITLE0=Yellowknife
TTITLE1=Rollin' the Dial
TTITLE2=A Pelican Na,ed Amelia
TTITLE3=Big Red Locomntives
TTITLE4=Her Name Way Cheyenne
TTITLE5=Huricane Trish
TTITLE6=Keep It A secret
TTITLE7=Mr. Maytag
TTITLE8=The Girl In the Guitar
TTITLE9=Tonight I Need A Woman
EXTD=YEAR: 2007
EXTT0=
EXTT1=
EXTT2=
EXTT3=
EXTT4=
EXTT5=
EXTT6=
EXTT7=
EXTT8=
EXTT9=
PLAYORDER=
